<?xml version="1.0" encoding="utf-8"?>
<svg version="1.1"
    xmlns="http://www.w3.org/2000/svg"
    xmlns:xlink="http://www.w3.org/1999/xlink">

    <svg id="three_dots" viewBox="0 0 330 100">
        <circle cx="50" cy="50" r="50"/>
        <circle cx="280" cy="50" r="50"/>
        <circle cx="165" cy="50" r="50"/>
    </svg>

    <svg id="trash" viewBox="0 0 120 127">
        <rect x="15" y="32" width="90" height="90" rx="5" stroke-width="10"/>
        <line x1="5" y1="32" x2="115" y2="32" stroke-width="10" stroke-linecap="round" stroke-linejoin="round"/>
        <line x1="42" y1="57" x2="42" y2="97" stroke-width="10" stroke-linecap="round"/>
        <line x1="78" y1="57" x2="78" y2="97" stroke-width="10" stroke-linecap="round"/>
        <line x1="60" y1="57" x2="60" y2="97" stroke-width="10" stroke-linecap="round"/>
        <path d="M30 32.5L40.2931 10.7262C41.9459 7.22989 45.4665 5 49.3338 5H71.9886C75.9469 5 79.5327 7.33488 81.1339 10.9549L90 31" stroke-width="10"/>
    </svg>

    <svg id="edit" viewBox="0 0 152 151">
        <rect x="14.2173" y="114.201" width="136.066" height="32.6417" transform="rotate(-45 14.2173 114.201)"/>
        <rect x="117.667" y="10.5181" width="17.7032" height="32.6417" rx="5" transform="rotate(-45 117.667 10.5181)"/>
        <rect x="117.667" y="10.5181" width="11.8885" height="32.6417" transform="rotate(-45 117.667 10.5181)"/>
        <path d="M0.398595 150.735L5.84368 122.067L29.0507 145.206L0.398595 150.735Z" />
    </svg>

    <svg id="add_file" viewBox="0 0 201 200">
        <rect x="75" width="50" height="200" />
        <rect x="199.999" y="75" width="50" height="200" transform="rotate(89.8574 199.999 75)" />
    </svg>
</svg>