<svg width="288" height="88" viewBox="0 0 288 88" fill="none" xmlns="http://www.w3.org/2000/svg">
<path d="M69.496 1.75999C72.952 1.75999 74.744 3.552 74.872 7.136L77.368 68H63.832L61.624 12.992H59.896L49.24 54.368C48.6 57.44 46.68 58.976 43.48 58.976H34.264C31 58.976 29.048 57.44 28.408 54.368L17.656 12.992H16.024L14.008 68H0.472L2.872 7.136C3 3.552 4.824 1.75999 8.344 1.75999H22.072C25.208 1.75999 27.128 3.296 27.832 6.368L36.376 39.776C36.76 41.312 37.08 42.88 37.336 44.48C37.592 46.016 37.88 47.584 38.2 49.184H39.448C39.768 47.584 40.056 46.016 40.312 44.48C40.568 42.88 40.888 41.28 41.272 39.68L49.72 6.368C50.36 3.296 52.312 1.75999 55.576 1.75999H69.496ZM102.43 20.576V51.776C102.43 53.76 102.846 55.168 103.678 56C104.51 56.832 105.918 57.248 107.902 57.248C109.63 57.248 111.39 56.96 113.182 56.384C114.974 55.808 117.118 54.848 119.614 53.504V20.576H133.822V68H122.686L121.438 61.088C118.11 63.84 114.846 65.888 111.646 67.232C108.446 68.576 105.15 69.248 101.758 69.248C92.798 69.248 88.318 64.864 88.318 56.096V20.576H102.43ZM156.552 20.576L157.896 27.776C164.424 22.144 170.856 19.328 177.192 19.328H179.688L178.344 32.384H174.408C172.36 32.384 170.184 32.672 167.88 33.248C165.64 33.824 162.888 34.688 159.624 35.84V68H145.512V20.576H156.552ZM232.179 20.576L219.795 37.088C219.219 38.048 218.483 38.944 217.587 39.776C216.691 40.608 215.955 41.184 215.379 41.504V41.792C215.955 42.176 216.691 42.88 217.587 43.904C218.483 44.864 219.219 45.856 219.795 46.88L233.811 68H217.971L204.531 45.92H199.923C200.115 47.2 200.243 48.448 200.307 49.664C200.435 50.88 200.499 52.032 200.499 53.12V68H186.387V0.799995H200.499V28.544C200.563 31.552 200.371 34.464 199.923 37.28H204.531L216.339 20.576H232.179ZM249.996 20.576L259.02 51.296C259.276 52.512 259.532 53.728 259.788 54.944C260.044 56.16 260.268 57.376 260.46 58.592H261.612C261.996 57.376 262.348 56.128 262.668 54.848C262.988 53.504 263.308 52.32 263.628 51.296L272.556 20.576H287.628L270.636 68.576C269.868 70.944 268.78 73.312 267.372 75.68C266.028 78.112 264.3 80.288 262.188 82.208C260.14 84.128 257.644 85.568 254.7 86.528C251.82 87.552 248.396 87.808 244.428 87.296L243.372 79.232C247.276 78.208 250.316 76.832 252.492 75.104C254.668 73.376 256.364 71.104 257.58 68.288L257.772 68H255.084C252.652 68 251.116 66.848 250.476 64.544L234.924 20.576H249.996Z" fill="#0F4141"/>
<path d="M47.5 37.5C46.8333 41.1667 46.0465 47.386 44.5 54.5C41.5652 68 28.5 70 24 70" stroke="#0F4141" stroke-width="9"/>
</svg>
